HIERARCHY
ROOT Hip
{
	OFFSET 0 1.131 0.0052
	CHANNELS 6 Xposition Yposition Zposition Xrotation Yrotation Zrotation
	JOINT Abdomen
	{
		OFFSET 0 -0.047353 -0.05
		CHANNELS 3 Xrotation Zrotation Yrotation
		JOINT Chest
		{
			OFFSET 0 0.132153 0.007439
			CHANNELS 3 Xrotation Zrotation Yrotation
			JOINT Neck
			{
				OFFSET 0 0.3078 0.006161
				CHANNELS 3 Xrotation Zrotation Yrotation
				JOINT Head_comp
				{
					OFFSET 0 0.0884 0.013
					CHANNELS 3 Xrotation Yrotation Zrotation
					End Site
					{
						OFFSET -0 0.156 0.0624
					}
				}
			}
			JOINT Left_Collar
			{
				OFFSET 0.02282 0.250342 0.017193
				CHANNELS 2 Yrotation Zrotation
				JOINT Left_Shoulder
				{
					OFFSET 0.15421 0 0
					CHANNELS 3 Xrotation Yrotation Zrotation
					JOINT Left_Forearm
					{
						OFFSET 0.265212 0 0
						CHANNELS 2 Yrotation Xrotation
						JOINT Left_Hand
						{
							OFFSET 0.27571 0 0
							CHANNELS 2 Zrotation Yrotation
							JOINT L1ProxPhalanx
							{
								OFFSET 0.014142 0.001733 0.014142
								CHANNELS 3 Yrotation Zrotation Xrotation
								JOINT L1MidPhalanx
								{
									OFFSET 0.04 0 0
									CHANNELS 1 Zrotation
									JOINT L1DistPhalanx
									{
										OFFSET 0.035 0 0
										CHANNELS 1 Zrotation
										End Site
										{
											OFFSET 0.029 -0 -0
										}
									}
								}
							}
							JOINT L2ProxPhalanx
							{
								OFFSET 0.0821037 0.001578 0.0219996
								CHANNELS 2 Yrotation Zrotation
								JOINT L2MidPhalanx
								{
									OFFSET 0.04 0 0
									CHANNELS 1 Zrotation
									JOINT L2DistPhalanx
									{
										OFFSET 0.028 0 0
										CHANNELS 1 Zrotation
										End Site
										{
											OFFSET 0.02 -0 -0
										}
									}
								}
							}
							JOINT L3ProxPhalanx
							{
								OFFSET 0.083 0 0
								CHANNELS 2 Yrotation Zrotation
								JOINT L3MidPhalanx
								{
									OFFSET 0.053 0 0
									CHANNELS 1 Zrotation
									JOINT L3DistPhalanx
									{
										OFFSET 0.03 0 0
										CHANNELS 1 Zrotation
										End Site
										{
											OFFSET 0.023 -0 -0
										}
									}
								}
							}
							JOINT L4ProxPhalanx
							{
								OFFSET 0.077274 -0.000761 -0.0207055
								CHANNELS 2 Yrotation Zrotation
								JOINT L4MidPhalanx
								{
									OFFSET 0.05 0 0
									CHANNELS 1 Zrotation
									JOINT L4DistPhalanx
									{
										OFFSET 0.03 0 0
										CHANNELS 1 Zrotation
										End Site
										{
											OFFSET 0.023 -0 -0
										}
									}
								}
							}
							JOINT L5ProxPhalanx
							{
								OFFSET 0.0675499 -0.001644 -0.039
								CHANNELS 2 Yrotation Zrotation
								JOINT L5MidPhalanx
								{
									OFFSET 0.04 0 0
									CHANNELS 1 Zrotation
									JOINT L5DistPhalanx
									{
										OFFSET 0.021 0 0
										CHANNELS 1 Zrotation
										End Site
										{
											OFFSET 0.022 -0 -0
										}
									}
								}
							}
						}
					}
				}
			}
			JOINT Right_Collar
			{
				OFFSET -0.02282 0.250342 0.017193
				CHANNELS 2 Yrotation Zrotation
				JOINT Right_Shoulder
				{
					OFFSET -0.15421 0 0
					CHANNELS 3 Xrotation Yrotation Zrotation
					JOINT Right_Forearm
					{
						OFFSET -0.265212 0 0
						CHANNELS 2 Yrotation Xrotation
						JOINT Right_Hand
						{
							OFFSET -0.27571 3e-006 0
							CHANNELS 2 Zrotation Yrotation
							JOINT R1ProxPhalanx
							{
								OFFSET -0.014142 0.001733 0.014142
								CHANNELS 3 Yrotation Zrotation Xrotation
								JOINT R1MidPhalanx
								{
									OFFSET -0.04 0 0
									CHANNELS 1 Zrotation
									JOINT R1DistPhalanx
									{
										OFFSET -0.035 0 0
										CHANNELS 1 Zrotation
										End Site
										{
											OFFSET -0.029 -0 -0
										}
									}
								}
							}
							JOINT R2ProxPhalanx
							{
								OFFSET -0.0821037 0.001578 0.0219996
								CHANNELS 2 Yrotation Zrotation
								JOINT R2MidPhalanx
								{
									OFFSET -0.04 0 0
									CHANNELS 1 Zrotation
									JOINT R2DistPhalanx
									{
										OFFSET -0.028 0 0
										CHANNELS 1 Zrotation
										End Site
										{
											OFFSET -0.02 -0 -0
										}
									}
								}
							}
							JOINT R3ProxPhalanx
							{
								OFFSET -0.083 0 0
								CHANNELS 2 Yrotation Zrotation
								JOINT R3MidPhalanx
								{
									OFFSET -0.053 0 0
									CHANNELS 1 Zrotation
									JOINT R3DistPhalanx
									{
										OFFSET -0.03 0 0
										CHANNELS 1 Zrotation
										End Site
										{
											OFFSET -0.023 -0 -0
										}
									}
								}
							}
							JOINT R4ProxPhalanx
							{
								OFFSET -0.077274 -0.000761 -0.0207055
								CHANNELS 2 Yrotation Zrotation
								JOINT R4MidPhalanx
								{
									OFFSET -0.05 0 0
									CHANNELS 1 Zrotation
									JOINT R4DistPhalanx
									{
										OFFSET -0.03 0 0
										CHANNELS 1 Zrotation
										End Site
										{
											OFFSET -0.023 -0 -0
										}
									}
								}
							}
							JOINT R5ProxPhalanx
							{
								OFFSET -0.0675499 -0.001644 -0.039
								CHANNELS 2 Yrotation Zrotation
								JOINT R5MidPhalanx
								{
									OFFSET -0.04 0 0
									CHANNELS 1 Zrotation
									JOINT R5DistPhalanx
									{
										OFFSET -0.021 0 0
										CHANNELS 1 Zrotation
										End Site
										{
											OFFSET -0.022 -0 -0
										}
									}
								}
							}
						}
					}
				}
			}
		}
	}
	JOINT Left_Thigh
	{
		OFFSET 0.1118 -0.1612 -0.0442
		CHANNELS 3 Xrotation Zrotation Yrotation
		JOINT Left_Shin
		{
			OFFSET 0 -0.477856 0
			CHANNELS 1 Xrotation
			JOINT Left_Foot
			{
				OFFSET 0 -0.431952 0
				CHANNELS 2 Xrotation Zrotation
				JOINT Left_Toe
				{
					OFFSET 0 -0.0442 0.119
					CHANNELS 1 Xrotation
					End Site
					{
						OFFSET -0 -0 0.07
					}
				}
			}
		}
	}
	JOINT Right_Thigh
	{
		OFFSET -0.1118 -0.1612 -0.0442
		CHANNELS 3 Xrotation Zrotation Yrotation
		JOINT Right_Shin
		{
			OFFSET 0 -0.477856 0
			CHANNELS 1 Xrotation
			JOINT Right_Foot
			{
				OFFSET 0 -0.431952 0
				CHANNELS 2 Xrotation Zrotation
				JOINT Right_Toe
				{
					OFFSET 0 -0.0442 0.119
					CHANNELS 1 Xrotation
					End Site
					{
						OFFSET -0 -0 0.07
					}
				}
			}
		}
	}
}
MOTION
Frames: 8
Frame Time: 0.0099875
-0.100468 -0.0617189 0.0364927 -4.5296e-014 -1.51847 -0.0203209 0.540166 -0.80718 -0.515219 0.540166 0.53812 -0.515089 0.540166 0.645744 -0.515089 -1.30072 1.51736 0.53812 1.13493 -5.37991 0.886419 -24.8644 -61.0958 -87.4461 34.4967 1.07473 -0.263178 -26.0474 -64.2238 113.276 -47.5743 -45.0586 -9.06625 -24.4445 -14.2991 -0.0413103 0 -71.3113 -83.0283 -74.3154 8.40621 -31.4516 -63.8515 -54.9494 12.1686 -9.47368 -71.8418 -56.2318 -0.781577 3.17673 -33.8956 23.0791 49.0747 102.24 39.6178 2.98822 -0.752557 49.1349 38.2357 76.4561 36.295 25.8002 6.12572 28.2053 4.36897 -0.487816 0 81.6903 55.7851 30.9091 -9.62649 79.7749 75.6302 50.0111 -13.5855 63.1577 74.2336 60.5834 -3.30259 -0.673988 1.55974 6.97725 -3.69447 0.782784 0 -3.57984 -0.671309 1.56329 6.77374 -3.21376 0.78767 0 
-0.100441 -0.0617201 0.0364472 5.52261e-007 -1.55768 -0.0218796 0.546732 -0.827899 -0.5287 0.546736 0.551932 -0.528558 0.546737 0.662319 -0.528558 -1.30737 1.54928 0.551932 1.13752 -5.34055 0.860978 -24.9084 -61.2323 -87.1231 34.7237 0.452679 -0.114868 -26.0474 -64.2238 113.276 -47.5743 -45.0586 -9.06625 -24.4445 -14.2991 -0.0413103 0 -71.3113 -83.0283 -74.3154 8.40621 -31.4516 -63.8515 -54.9494 12.1686 -9.47368 -71.8418 -56.2318 -0.744919 3.00472 -34.3405 23.0021 48.7947 102.357 39.7477 3.28725 -0.855473 49.1349 38.2357 76.4561 36.295 25.8002 6.12572 28.2053 4.36897 -0.487816 0 81.6903 55.7851 30.9091 -9.62649 79.7749 75.6302 50.0111 -13.5855 63.1577 74.2336 60.5834 -3.3046 -0.673344 1.599 6.98448 -3.70026 0.786002 0 -3.58463 -0.670653 1.60259 6.76651 -3.20231 0.791145 0 
-0.100417 -0.0617212 0.0363888 -1.60203e-013 -1.59728 -0.0234303 0.556567 -0.848826 -0.542318 0.556567 0.565884 -0.542161 0.556567 0.679061 -0.542161 -1.31764 1.58155 0.565884 1.14285 -5.3192 0.797432 -24.9344 -61.338 -86.8478 34.9182 -0.236945 0.0679256 -26.0474 -64.2238 113.276 -47.5743 -45.0586 -9.06625 -24.4445 -14.2991 -0.0413103 0 -71.3113 -83.0283 -74.3154 8.40621 -31.4516 -63.8515 -54.9494 12.1686 -9.47368 -71.8418 -56.2318 -0.712825 2.86109 -34.7494 22.9299 48.5166 102.48 39.8688 3.56537 -0.957294 49.1349 38.2357 76.4561 36.295 25.8002 6.12572 28.2053 4.36897 -0.487816 0 81.6903 55.7851 30.9091 -9.62649 79.7749 75.6302 50.0111 -13.5855 63.1577 74.2336 60.5834 -3.30739 -0.672473 1.63865 6.99178 -3.70533 0.789033 0 -3.59025 -0.669768 1.64229 6.75921 -3.18996 0.794435 0 
-0.100366 -0.0617222 0.0363166 -2.03944e-013 -1.59728 -0.023302 0.569704 -0.848826 -0.542319 0.569704 0.565884 -0.542161 0.569704 0.679061 -0.542161 -1.33218 1.58163 0.565884 1.13763 -5.31134 0.732146 -24.9321 -61.4064 -86.6334 35.0138 -0.973699 0.284215 -26.0474 -64.2238 113.276 -47.5743 -45.0586 -9.06625 -24.4445 -14.2991 -0.0413103 0 -71.3113 -83.0283 -74.3154 8.40621 -31.4516 -63.8515 -54.9494 12.1686 -9.47368 -71.8418 -56.2318 -0.696705 2.73311 -35.1316 22.8831 48.2617 102.595 39.9839 3.81253 -1.05436 49.1349 38.2357 76.4561 36.295 25.8002 6.12572 28.2053 4.36897 -0.487816 0 81.6903 55.7851 30.9091 -9.62649 79.7749 75.6302 50.0111 -13.5855 63.1577 74.2336 60.5834 -3.31204 -0.675717 1.6389 6.99178 -3.70077 0.792286 0 -3.59489 -0.673011 1.64255 6.75921 -3.1854 0.797688 0 
-0.100325 -0.0617229 0.0362751 -1.20982e-014 -1.59728 -0.0232281 0.576346 -0.848826 -0.542319 0.576346 0.565884 -0.542161 0.576346 0.679061 -0.542161 -1.33953 1.58165 0.565884 1.13113 -5.27756 0.6671 -24.9156 -61.4848 -86.4598 35.0507 -1.71572 0.5224 -25.918 -64.2467 113.397 -47.6252 -45.1217 -9.06625 -24.4445 -14.2991 -0.0413103 0 -71.3113 -83.0283 -74.3154 8.40621 -31.4516 -63.8515 -54.9494 12.1686 -9.47368 -71.8418 -56.2318 -0.683921 2.62491 -35.4655 22.8397 48.0149 102.706 40.102 4.03902 -1.14642 49.1349 38.2357 76.4561 36.295 25.8002 6.12572 28.2053 4.36897 -0.487816 0 81.6903 55.7851 30.9091 -9.62649 79.7749 75.6302 50.0111 -13.5855 63.1577 74.2336 60.5834 -3.31473 -0.678307 1.63909 6.99178 -3.69816 0.794882 0 -3.59758 -0.675599 1.64275 6.75921 -3.18279 0.800284 0 
-0.100323 -0.0617236 0.0362469 5.47551e-007 -1.63609 -0.0247879 0.579584 -0.856333 -0.555666 0.579586 0.579557 -0.555495 0.579587 0.695468 -0.555495 -1.34222 1.61388 0.579556 1.13661 -5.22913 0.554015 -24.9086 -61.569 -86.3106 35.0774 -2.37563 0.752545 -25.4994 -64.3206 113.788 -47.7897 -45.3258 -9.06625 -24.4445 -14.2991 -0.0413103 0 -71.3113 -83.0283 -74.3154 8.40621 -31.4516 -63.8515 -54.9494 12.1686 -9.47368 -71.8418 -56.2318 -0.662454 2.54568 -35.7443 22.7828 47.7721 102.826 40.2087 4.30579 -1.25554 49.1349 38.2357 76.4561 36.295 25.8002 6.12572 28.2053 4.36897 -0.487816 0 81.6903 55.7851 30.9091 -9.62649 79.7749 75.6302 50.0111 -13.5855 63.1577 74.2336 60.5834 -3.31561 -0.676073 1.67784 6.99894 -3.70496 0.796464 0 -3.60122 -0.67336 1.68155 6.75205 -3.17251 0.802134 0 
-0.100292 -0.0617243 0.0361908 5.81778e-007 -1.63737 -0.0247417 0.589383 -0.856579 -0.556108 0.589386 0.580009 -0.555934 0.589386 0.696011 -0.555933 -1.35304 1.61502 0.580011 1.12841 -5.17634 0.40622 -24.8808 -61.6489 -86.2037 35.159 -2.92511 0.956444 -24.9177 -64.4227 114.332 -48.0179 -45.6089 -9.06625 -24.4445 -14.2991 -0.0413103 0 -71.3113 -83.0283 -74.3154 8.40621 -31.4516 -63.8515 -54.9494 12.1686 -9.47368 -71.8418 -56.2318 -0.661616 2.50116 -35.9733 22.7473 47.5444 102.95 40.2986 4.60207 -1.38213 49.1349 38.2357 76.4561 36.295 25.8002 6.12572 28.2053 4.36897 -0.487816 0 81.6903 55.7851 30.9091 -9.62649 79.7749 75.6302 50.0111 -13.5855 63.1577 74.2336 60.5834 -3.31917 -0.677967 1.67928 6.99918 -3.7017 0.798491 0 -3.60488 -0.675253 1.683 6.75181 -3.1687 0.80417 0 
-0.10023 -0.0617246 0.0361276 -2.38196e-013 -1.59728 -0.0229664 0.599298 -0.848826 -0.542321 0.599298 0.565884 -0.542161 0.599298 0.679061 -0.542161 -1.36493 1.58181 0.565884 1.10582 -5.11883 0.22414 -24.836 -61.7215 -86.1436 35.3162 -3.37185 1.1308 -24.4319 -64.5077 114.786 -48.2083 -45.8451 -9.06625 -24.4445 -14.2991 -0.0413103 0 -71.3113 -83.0283 -74.3154 8.40621 -31.4516 -63.8515 -54.9494 12.1686 -9.47368 -71.8418 -56.2318 -0.675788 2.4666 -36.1653 22.7238 47.337 103.066 40.3842 4.91464 -1.51815 49.1349 38.2357 76.4561 36.295 25.8002 6.12572 28.2053 4.36897 -0.487816 0 81.6903 55.7851 30.9091 -9.62649 79.7749 75.6302 50.0111 -13.5855 63.1577 74.2336 60.5834 -3.3242 -0.684314 1.63956 6.99178 -3.68885 0.800906 0 -3.60706 -0.681604 1.64326 6.75921 -3.17348 0.806309 0 
